<svg xmlns="http://www.w3.org/2000/svg" viewBox="0 0 52.13 52.13"><defs><style>.cls-1,.cls-2{fill:none;}.cls-1{stroke:#fff;stroke-miterlimit:10;}</style></defs><g id="레이어_2" data-name="레이어 2"><g id="아이콘"><path class="cls-1" d="M38,25.86a12,12,0,1,0-12,12A12,12,0,0,0,38,25.86Z"/><line class="cls-1" x1="25.98" y1="4.69" x2="25.98" y2="9.64"/><line class="cls-1" x1="44.76" y1="15.41" x2="40.45" y2="17.84"/><line class="cls-1" x1="7.57" y1="15.41" x2="11.88" y2="17.84"/><line class="cls-1" x1="36.84" y1="7.5" x2="34.36" y2="11.78"/><line class="cls-1" x1="15.44" y1="7.5" x2="17.91" y2="11.78"/><line class="cls-1" x1="42.61" y1="25.86" x2="47.56" y2="25.86"/><line class="cls-1" x1="40.38" y1="34.18" x2="44.67" y2="36.65"/><line class="cls-1" x1="34.29" y1="40.26" x2="36.77" y2="44.55"/><line class="cls-1" x1="25.98" y1="42.49" x2="25.98" y2="47.44"/><line class="cls-1" x1="17.66" y1="40.27" x2="15.19" y2="44.55"/><line class="cls-1" x1="11.57" y1="34.18" x2="7.29" y2="36.65"/><line class="cls-1" x1="4.58" y1="25.86" x2="9.52" y2="25.86"/><rect class="cls-2" width="52.13" height="52.13"/></g></g></svg>